<mxfile host="Electron" modified="2024-06-30T17:14:29.395Z" agent="Mozilla/5.0 (Macintosh; Intel Mac OS X 10_15_7) AppleWebKit/537.36 (KHTML, like Gecko) draw.io/24.2.5 Chrome/120.0.6099.109 Electron/28.1.0 Safari/537.36" etag="2-iCxzeIRheiWHsiSZg4" version="24.2.5" type="device">
  <diagram name="Page-1" id="yGYKO2Iian3LjyRrtst5">
    <mxGraphModel dx="1930" dy="1085" grid="0" gridSize="10" guides="1" tooltips="1" connect="1" arrows="1" fold="1" page="0" pageScale="1" pageWidth="850" pageHeight="1100" math="0" shadow="0">
      <root>
        <mxCell id="0" />
        <mxCell id="1" parent="0" />
        <mxCell id="aPE9NUyvlS6aANwrriKW-1" value="AWS" style="ellipse;shape=cloud;whiteSpace=wrap;html=1;sketch=1;hachureGap=4;jiggle=2;curveFitting=1;fontFamily=Architects Daughter;fontSource=https%3A%2F%2Ffonts.googleapis.com%2Fcss%3Ffamily%3DArchitects%2BDaughter;fontSize=18;fillColor=#dae8fc;gradientColor=#7ea6e0;strokeColor=#6c8ebf;fontColor=#000000;" vertex="1" parent="1">
          <mxGeometry x="140" y="175" width="120" height="80" as="geometry" />
        </mxCell>
        <mxCell id="aPE9NUyvlS6aANwrriKW-2" value="AWS" style="ellipse;shape=cloud;whiteSpace=wrap;html=1;sketch=1;hachureGap=4;jiggle=2;curveFitting=1;fontFamily=Architects Daughter;fontSource=https%3A%2F%2Ffonts.googleapis.com%2Fcss%3Ffamily%3DArchitects%2BDaughter;fontSize=18;fillColor=#dae8fc;gradientColor=#7ea6e0;strokeColor=#6c8ebf;fontColor=#000000;" vertex="1" parent="1">
          <mxGeometry x="648.75" y="175" width="120" height="80" as="geometry" />
        </mxCell>
        <mxCell id="aPE9NUyvlS6aANwrriKW-3" value="Azure" style="ellipse;shape=cloud;whiteSpace=wrap;html=1;sketch=1;hachureGap=4;jiggle=2;curveFitting=1;fontFamily=Architects Daughter;fontSource=https%3A%2F%2Ffonts.googleapis.com%2Fcss%3Ffamily%3DArchitects%2BDaughter;fontSize=18;fillColor=#dae8fc;gradientColor=#7ea6e0;strokeColor=#6c8ebf;fontColor=#000000;" vertex="1" parent="1">
          <mxGeometry x="498.75" y="185" width="120" height="80" as="geometry" />
        </mxCell>
        <mxCell id="aPE9NUyvlS6aANwrriKW-5" value="CDN" style="rounded=1;whiteSpace=wrap;html=1;sketch=1;hachureGap=4;jiggle=2;curveFitting=1;fontFamily=Architects Daughter;fontSource=https%3A%2F%2Ffonts.googleapis.com%2Fcss%3Ffamily%3DArchitects%2BDaughter;fontSize=18;fillColor=#ffcd28;gradientColor=#ffa500;strokeColor=#d79b00;fontColor=#000000;fontStyle=1" vertex="1" parent="1">
          <mxGeometry x="588.75" y="65" width="90" height="50" as="geometry" />
        </mxCell>
        <mxCell id="aPE9NUyvlS6aANwrriKW-7" style="edgeStyle=orthogonalEdgeStyle;rounded=0;hachureGap=4;orthogonalLoop=1;jettySize=auto;html=1;exitX=0.25;exitY=1;exitDx=0;exitDy=0;entryX=0.625;entryY=0.2;entryDx=0;entryDy=0;entryPerimeter=0;fontFamily=Architects Daughter;fontSource=https%3A%2F%2Ffonts.googleapis.com%2Fcss%3Ffamily%3DArchitects%2BDaughter;curved=1;flowAnimation=1;strokeWidth=2;fontSize=18;strokeColor=#7F00FF;" edge="1" parent="1" source="aPE9NUyvlS6aANwrriKW-5" target="aPE9NUyvlS6aANwrriKW-3">
          <mxGeometry relative="1" as="geometry" />
        </mxCell>
        <mxCell id="aPE9NUyvlS6aANwrriKW-8" style="edgeStyle=orthogonalEdgeStyle;rounded=0;hachureGap=4;orthogonalLoop=1;jettySize=auto;html=1;exitX=0.75;exitY=1;exitDx=0;exitDy=0;entryX=0.4;entryY=0.1;entryDx=0;entryDy=0;entryPerimeter=0;fontFamily=Architects Daughter;fontSource=https%3A%2F%2Ffonts.googleapis.com%2Fcss%3Ffamily%3DArchitects%2BDaughter;curved=1;flowAnimation=1;strokeWidth=2;fontSize=18;strokeColor=#7F00FF;" edge="1" parent="1" source="aPE9NUyvlS6aANwrriKW-5" target="aPE9NUyvlS6aANwrriKW-2">
          <mxGeometry relative="1" as="geometry" />
        </mxCell>
        <mxCell id="aPE9NUyvlS6aANwrriKW-9" value="AWS" style="ellipse;shape=cloud;whiteSpace=wrap;html=1;sketch=1;hachureGap=4;jiggle=2;curveFitting=1;fontFamily=Architects Daughter;fontSource=https%3A%2F%2Ffonts.googleapis.com%2Fcss%3Ffamily%3DArchitects%2BDaughter;fontSize=18;fillColor=#dae8fc;gradientColor=#7ea6e0;strokeColor=#6c8ebf;fontColor=#000000;fontStyle=1" vertex="1" parent="1">
          <mxGeometry x="120" y="635" width="120" height="80" as="geometry" />
        </mxCell>
        <mxCell id="aPE9NUyvlS6aANwrriKW-10" value="Azure" style="ellipse;shape=cloud;whiteSpace=wrap;html=1;sketch=1;hachureGap=4;jiggle=2;curveFitting=1;fontFamily=Architects Daughter;fontSource=https%3A%2F%2Ffonts.googleapis.com%2Fcss%3Ffamily%3DArchitects%2BDaughter;fontSize=18;fillColor=#dae8fc;gradientColor=#7ea6e0;strokeColor=#6c8ebf;fontColor=#000000;fontStyle=1" vertex="1" parent="1">
          <mxGeometry x="-30" y="635" width="120" height="80" as="geometry" />
        </mxCell>
        <mxCell id="aPE9NUyvlS6aANwrriKW-11" value="CDN" style="rounded=1;whiteSpace=wrap;html=1;sketch=1;hachureGap=4;jiggle=2;curveFitting=1;fontFamily=Architects Daughter;fontSource=https%3A%2F%2Ffonts.googleapis.com%2Fcss%3Ffamily%3DArchitects%2BDaughter;fontSize=18;fillColor=#ffcd28;gradientColor=#ffa500;strokeColor=#d79b00;fontColor=#000000;fontStyle=1" vertex="1" parent="1">
          <mxGeometry x="60" y="515" width="90" height="50" as="geometry" />
        </mxCell>
        <mxCell id="aPE9NUyvlS6aANwrriKW-12" style="edgeStyle=orthogonalEdgeStyle;rounded=0;hachureGap=4;orthogonalLoop=1;jettySize=auto;html=1;exitX=0.25;exitY=1;exitDx=0;exitDy=0;entryX=0.625;entryY=0.2;entryDx=0;entryDy=0;entryPerimeter=0;fontFamily=Architects Daughter;fontSource=https%3A%2F%2Ffonts.googleapis.com%2Fcss%3Ffamily%3DArchitects%2BDaughter;curved=1;flowAnimation=1;strokeWidth=2;fontSize=18;strokeColor=#7F00FF;" edge="1" parent="1" source="aPE9NUyvlS6aANwrriKW-11" target="aPE9NUyvlS6aANwrriKW-10">
          <mxGeometry relative="1" as="geometry" />
        </mxCell>
        <mxCell id="aPE9NUyvlS6aANwrriKW-13" style="edgeStyle=orthogonalEdgeStyle;rounded=0;hachureGap=4;orthogonalLoop=1;jettySize=auto;html=1;exitX=0.75;exitY=1;exitDx=0;exitDy=0;entryX=0.4;entryY=0.1;entryDx=0;entryDy=0;entryPerimeter=0;fontFamily=Architects Daughter;fontSource=https%3A%2F%2Ffonts.googleapis.com%2Fcss%3Ffamily%3DArchitects%2BDaughter;curved=1;flowAnimation=1;strokeWidth=2;fontSize=18;strokeColor=#7F00FF;" edge="1" parent="1" source="aPE9NUyvlS6aANwrriKW-11" target="aPE9NUyvlS6aANwrriKW-9">
          <mxGeometry relative="1" as="geometry" />
        </mxCell>
        <mxCell id="aPE9NUyvlS6aANwrriKW-14" value="CDN" style="rounded=1;whiteSpace=wrap;html=1;sketch=1;hachureGap=4;jiggle=2;curveFitting=1;fontFamily=Architects Daughter;fontSource=https%3A%2F%2Ffonts.googleapis.com%2Fcss%3Ffamily%3DArchitects%2BDaughter;fontSize=18;fillColor=#ffcd28;gradientColor=#ffa500;strokeColor=#d79b00;fontColor=#000000;fontStyle=1" vertex="1" parent="1">
          <mxGeometry x="70" y="525" width="90" height="50" as="geometry" />
        </mxCell>
        <mxCell id="aPE9NUyvlS6aANwrriKW-15" value="GCP" style="ellipse;shape=cloud;whiteSpace=wrap;html=1;sketch=1;hachureGap=4;jiggle=2;curveFitting=1;fontFamily=Architects Daughter;fontSource=https%3A%2F%2Ffonts.googleapis.com%2Fcss%3Ffamily%3DArchitects%2BDaughter;fontSize=18;fillColor=#dae8fc;gradientColor=#7ea6e0;strokeColor=#6c8ebf;fontColor=#000000;fontStyle=1" vertex="1" parent="1">
          <mxGeometry x="45" y="665" width="120" height="80" as="geometry" />
        </mxCell>
        <mxCell id="aPE9NUyvlS6aANwrriKW-16" value="AliCloud" style="ellipse;shape=cloud;whiteSpace=wrap;html=1;sketch=1;hachureGap=4;jiggle=2;curveFitting=1;fontFamily=Architects Daughter;fontSource=https%3A%2F%2Ffonts.googleapis.com%2Fcss%3Ffamily%3DArchitects%2BDaughter;fontSize=18;fillColor=#dae8fc;gradientColor=#7ea6e0;strokeColor=#6c8ebf;fontColor=#000000;fontStyle=1" vertex="1" parent="1">
          <mxGeometry x="-35" y="695" width="120" height="80" as="geometry" />
        </mxCell>
        <mxCell id="aPE9NUyvlS6aANwrriKW-17" value="OCI" style="ellipse;shape=cloud;whiteSpace=wrap;html=1;sketch=1;hachureGap=4;jiggle=2;curveFitting=1;fontFamily=Architects Daughter;fontSource=https%3A%2F%2Ffonts.googleapis.com%2Fcss%3Ffamily%3DArchitects%2BDaughter;fontSize=18;fillColor=#dae8fc;gradientColor=#7ea6e0;strokeColor=#6c8ebf;fontColor=#000000;fontStyle=1" vertex="1" parent="1">
          <mxGeometry x="120" y="695" width="120" height="80" as="geometry" />
        </mxCell>
        <mxCell id="aPE9NUyvlS6aANwrriKW-22" value="VPN" style="edgeStyle=orthogonalEdgeStyle;rounded=0;hachureGap=4;orthogonalLoop=1;jettySize=auto;html=1;exitX=0.5;exitY=0.5;exitDx=0;exitDy=0;exitPerimeter=0;fontFamily=Architects Daughter;fontSource=https%3A%2F%2Ffonts.googleapis.com%2Fcss%3Ffamily%3DArchitects%2BDaughter;fontSize=18;flowAnimation=0;strokeWidth=1;sketch=1;curveFitting=1;jiggle=2;" edge="1" parent="1" source="aPE9NUyvlS6aANwrriKW-18" target="aPE9NUyvlS6aANwrriKW-1">
          <mxGeometry relative="1" as="geometry" />
        </mxCell>
        <mxCell id="aPE9NUyvlS6aANwrriKW-18" value="Admin" style="shape=umlActor;verticalLabelPosition=bottom;verticalAlign=top;html=1;outlineConnect=0;sketch=1;hachureGap=4;jiggle=2;curveFitting=1;fontFamily=Architects Daughter;fontSource=https%3A%2F%2Ffonts.googleapis.com%2Fcss%3Ffamily%3DArchitects%2BDaughter;fontSize=18;" vertex="1" parent="1">
          <mxGeometry x="20" y="185" width="30" height="60" as="geometry" />
        </mxCell>
        <mxCell id="aPE9NUyvlS6aANwrriKW-24" value="" style="edgeStyle=orthogonalEdgeStyle;rounded=0;hachureGap=4;orthogonalLoop=1;jettySize=auto;html=1;fontFamily=Architects Daughter;fontSource=https%3A%2F%2Ffonts.googleapis.com%2Fcss%3Ffamily%3DArchitects%2BDaughter;curved=1;fontSize=18;flowAnimation=1;strokeWidth=2;strokeColor=#7F00FF;" edge="1" parent="1" source="aPE9NUyvlS6aANwrriKW-23" target="aPE9NUyvlS6aANwrriKW-1">
          <mxGeometry x="-0.2" y="10" relative="1" as="geometry">
            <mxPoint as="offset" />
          </mxGeometry>
        </mxCell>
        <mxCell id="aPE9NUyvlS6aANwrriKW-23" value="Users" style="shape=umlActor;verticalLabelPosition=bottom;verticalAlign=top;html=1;outlineConnect=0;sketch=1;hachureGap=4;jiggle=2;curveFitting=1;fontFamily=Architects Daughter;fontSource=https%3A%2F%2Ffonts.googleapis.com%2Fcss%3Ffamily%3DArchitects%2BDaughter;fontSize=18;" vertex="1" parent="1">
          <mxGeometry x="280" y="75" width="30" height="60" as="geometry" />
        </mxCell>
        <mxCell id="aPE9NUyvlS6aANwrriKW-31" style="edgeStyle=orthogonalEdgeStyle;rounded=0;hachureGap=4;orthogonalLoop=1;jettySize=auto;html=1;entryX=1;entryY=0.5;entryDx=0;entryDy=0;fontFamily=Architects Daughter;fontSource=https%3A%2F%2Ffonts.googleapis.com%2Fcss%3Ffamily%3DArchitects%2BDaughter;flowAnimation=1;strokeWidth=2;strokeColor=#7F00FF;" edge="1" parent="1" source="aPE9NUyvlS6aANwrriKW-27" target="aPE9NUyvlS6aANwrriKW-5">
          <mxGeometry relative="1" as="geometry" />
        </mxCell>
        <mxCell id="aPE9NUyvlS6aANwrriKW-27" value="10 X Users" style="shape=umlActor;verticalLabelPosition=bottom;verticalAlign=top;html=1;outlineConnect=0;sketch=1;hachureGap=4;jiggle=2;curveFitting=1;fontFamily=Architects Daughter;fontSource=https%3A%2F%2Ffonts.googleapis.com%2Fcss%3Ffamily%3DArchitects%2BDaughter;fontSize=18;" vertex="1" parent="1">
          <mxGeometry x="768.75" y="60" width="30" height="60" as="geometry" />
        </mxCell>
        <mxCell id="aPE9NUyvlS6aANwrriKW-32" value="Admin" style="shape=umlActor;verticalLabelPosition=bottom;verticalAlign=top;html=1;outlineConnect=0;sketch=1;hachureGap=4;jiggle=2;curveFitting=1;fontFamily=Architects Daughter;fontSource=https%3A%2F%2Ffonts.googleapis.com%2Fcss%3Ffamily%3DArchitects%2BDaughter;fontSize=18;" vertex="1" parent="1">
          <mxGeometry x="778.75" y="275" width="30" height="60" as="geometry" />
        </mxCell>
        <mxCell id="aPE9NUyvlS6aANwrriKW-34" value="VPN/DC" style="edgeStyle=orthogonalEdgeStyle;curved=1;rounded=0;hachureGap=4;orthogonalLoop=1;jettySize=auto;html=1;exitX=0.5;exitY=0.5;exitDx=0;exitDy=0;exitPerimeter=0;entryX=0.31;entryY=0.8;entryDx=0;entryDy=0;entryPerimeter=0;strokeColor=default;align=center;verticalAlign=middle;fontFamily=Architects Daughter;fontSource=https%3A%2F%2Ffonts.googleapis.com%2Fcss%3Ffamily%3DArchitects%2BDaughter;fontSize=18;fontColor=default;labelBackgroundColor=default;endArrow=classic;flowAnimation=0;strokeWidth=1;sketch=1;curveFitting=1;jiggle=2;" edge="1" parent="1" source="aPE9NUyvlS6aANwrriKW-32" target="aPE9NUyvlS6aANwrriKW-2">
          <mxGeometry x="0.5857" y="-23" relative="1" as="geometry">
            <mxPoint as="offset" />
          </mxGeometry>
        </mxCell>
        <mxCell id="aPE9NUyvlS6aANwrriKW-35" value="VPN/ER" style="edgeStyle=orthogonalEdgeStyle;curved=1;rounded=0;hachureGap=4;orthogonalLoop=1;jettySize=auto;html=1;entryX=0.55;entryY=0.95;entryDx=0;entryDy=0;entryPerimeter=0;strokeColor=default;align=center;verticalAlign=middle;fontFamily=Architects Daughter;fontSource=https%3A%2F%2Ffonts.googleapis.com%2Fcss%3Ffamily%3DArchitects%2BDaughter;fontSize=18;fontColor=default;labelBackgroundColor=default;endArrow=classic;flowAnimation=0;strokeWidth=1;sketch=1;curveFitting=1;jiggle=2;" edge="1" parent="1" source="aPE9NUyvlS6aANwrriKW-32" target="aPE9NUyvlS6aANwrriKW-3">
          <mxGeometry relative="1" as="geometry" />
        </mxCell>
        <mxCell id="aPE9NUyvlS6aANwrriKW-36" style="edgeStyle=orthogonalEdgeStyle;curved=1;rounded=0;hachureGap=4;orthogonalLoop=1;jettySize=auto;html=1;exitX=0.875;exitY=0.5;exitDx=0;exitDy=0;exitPerimeter=0;entryX=0.07;entryY=0.4;entryDx=0;entryDy=0;entryPerimeter=0;strokeColor=#FF00FF;align=center;verticalAlign=middle;fontFamily=Architects Daughter;fontSource=https%3A%2F%2Ffonts.googleapis.com%2Fcss%3Ffamily%3DArchitects%2BDaughter;fontSize=18;fontColor=default;labelBackgroundColor=default;endArrow=classic;startArrow=classic;startFill=1;flowAnimation=1;strokeWidth=2;" edge="1" parent="1" source="aPE9NUyvlS6aANwrriKW-3" target="aPE9NUyvlS6aANwrriKW-2">
          <mxGeometry relative="1" as="geometry" />
        </mxCell>
        <mxCell id="aPE9NUyvlS6aANwrriKW-39" style="edgeStyle=orthogonalEdgeStyle;curved=1;rounded=0;hachureGap=4;orthogonalLoop=1;jettySize=auto;html=1;entryX=0.458;entryY=0.056;entryDx=0;entryDy=0;entryPerimeter=0;strokeColor=#7F00FF;strokeWidth=2;align=center;verticalAlign=middle;fontFamily=Architects Daughter;fontSource=https%3A%2F%2Ffonts.googleapis.com%2Fcss%3Ffamily%3DArchitects%2BDaughter;fontSize=18;fontColor=default;labelBackgroundColor=default;endArrow=classic;flowAnimation=1;" edge="1" parent="1" source="aPE9NUyvlS6aANwrriKW-14" target="aPE9NUyvlS6aANwrriKW-15">
          <mxGeometry relative="1" as="geometry" />
        </mxCell>
        <mxCell id="aPE9NUyvlS6aANwrriKW-41" style="edgeStyle=orthogonalEdgeStyle;curved=1;rounded=0;hachureGap=4;orthogonalLoop=1;jettySize=auto;html=1;entryX=0.5;entryY=0;entryDx=0;entryDy=0;strokeColor=#7F00FF;align=center;verticalAlign=middle;fontFamily=Architects Daughter;fontSource=https%3A%2F%2Ffonts.googleapis.com%2Fcss%3Ffamily%3DArchitects%2BDaughter;fontSize=18;fontColor=default;labelBackgroundColor=default;endArrow=classic;flowAnimation=1;strokeWidth=2;" edge="1" parent="1" source="aPE9NUyvlS6aANwrriKW-40" target="aPE9NUyvlS6aANwrriKW-11">
          <mxGeometry relative="1" as="geometry" />
        </mxCell>
        <mxCell id="aPE9NUyvlS6aANwrriKW-40" value="100 X User" style="shape=umlActor;verticalLabelPosition=bottom;verticalAlign=top;html=1;outlineConnect=0;sketch=1;hachureGap=4;jiggle=2;curveFitting=1;fontFamily=Architects Daughter;fontSource=https%3A%2F%2Ffonts.googleapis.com%2Fcss%3Ffamily%3DArchitects%2BDaughter;fontSize=18;" vertex="1" parent="1">
          <mxGeometry x="205" y="445" width="30" height="60" as="geometry" />
        </mxCell>
        <mxCell id="aPE9NUyvlS6aANwrriKW-42" value="Admin" style="shape=umlActor;verticalLabelPosition=bottom;verticalAlign=top;html=1;outlineConnect=0;sketch=1;hachureGap=4;jiggle=2;curveFitting=1;fontFamily=Architects Daughter;fontSource=https%3A%2F%2Ffonts.googleapis.com%2Fcss%3Ffamily%3DArchitects%2BDaughter;fontSize=18;" vertex="1" parent="1">
          <mxGeometry x="90" y="835" width="30" height="60" as="geometry" />
        </mxCell>
        <mxCell id="aPE9NUyvlS6aANwrriKW-43" value="SASE" style="edgeStyle=orthogonalEdgeStyle;curved=1;rounded=0;hachureGap=4;orthogonalLoop=1;jettySize=auto;html=1;entryX=0.5;entryY=1;entryDx=0;entryDy=0;entryPerimeter=0;strokeColor=default;align=center;verticalAlign=middle;fontFamily=Architects Daughter;fontSource=https%3A%2F%2Ffonts.googleapis.com%2Fcss%3Ffamily%3DArchitects%2BDaughter;fontSize=18;fontColor=default;labelBackgroundColor=default;endArrow=classic;flowAnimation=0;strokeWidth=1;sketch=1;curveFitting=1;jiggle=2;" edge="1" parent="1" source="aPE9NUyvlS6aANwrriKW-42" target="aPE9NUyvlS6aANwrriKW-15">
          <mxGeometry relative="1" as="geometry" />
        </mxCell>
        <mxCell id="aPE9NUyvlS6aANwrriKW-44" value="AWS" style="ellipse;shape=cloud;whiteSpace=wrap;html=1;sketch=1;hachureGap=4;jiggle=2;curveFitting=1;fontFamily=Architects Daughter;fontSource=https%3A%2F%2Ffonts.googleapis.com%2Fcss%3Ffamily%3DArchitects%2BDaughter;fontSize=18;fillColor=#dae8fc;gradientColor=#7ea6e0;strokeColor=#6c8ebf;fontColor=#000000;fontStyle=1" vertex="1" parent="1">
          <mxGeometry x="558.75" y="640" width="120" height="80" as="geometry" />
        </mxCell>
        <mxCell id="aPE9NUyvlS6aANwrriKW-45" value="Azure" style="ellipse;shape=cloud;whiteSpace=wrap;html=1;sketch=1;hachureGap=4;jiggle=2;curveFitting=1;fontFamily=Architects Daughter;fontSource=https%3A%2F%2Ffonts.googleapis.com%2Fcss%3Ffamily%3DArchitects%2BDaughter;fontSize=18;fillColor=#dae8fc;gradientColor=#7ea6e0;strokeColor=#6c8ebf;fontColor=#000000;fontStyle=1" vertex="1" parent="1">
          <mxGeometry x="483.75" y="670" width="120" height="80" as="geometry" />
        </mxCell>
        <mxCell id="aPE9NUyvlS6aANwrriKW-46" value="GCP" style="ellipse;shape=cloud;whiteSpace=wrap;html=1;sketch=1;hachureGap=4;jiggle=2;curveFitting=1;fontFamily=Architects Daughter;fontSource=https%3A%2F%2Ffonts.googleapis.com%2Fcss%3Ffamily%3DArchitects%2BDaughter;fontSize=18;fillColor=#dae8fc;gradientColor=#7ea6e0;strokeColor=#6c8ebf;fontColor=#000000;fontStyle=1" vertex="1" parent="1">
          <mxGeometry x="558.75" y="700" width="120" height="80" as="geometry" />
        </mxCell>
        <mxCell id="aPE9NUyvlS6aANwrriKW-47" value="AliCloud" style="ellipse;shape=cloud;whiteSpace=wrap;html=1;sketch=1;hachureGap=4;jiggle=2;curveFitting=1;fontFamily=Architects Daughter;fontSource=https%3A%2F%2Ffonts.googleapis.com%2Fcss%3Ffamily%3DArchitects%2BDaughter;fontSize=18;fillColor=#dae8fc;gradientColor=#7ea6e0;strokeColor=#6c8ebf;fontColor=#000000;fontStyle=1" vertex="1" parent="1">
          <mxGeometry x="478.75" y="730" width="120" height="80" as="geometry" />
        </mxCell>
        <mxCell id="aPE9NUyvlS6aANwrriKW-85" style="edgeStyle=orthogonalEdgeStyle;curved=1;rounded=0;hachureGap=4;orthogonalLoop=1;jettySize=auto;html=1;exitX=0.875;exitY=0.5;exitDx=0;exitDy=0;exitPerimeter=0;entryX=0;entryY=0.75;entryDx=0;entryDy=0;strokeColor=#FF00FF;strokeWidth=2;align=center;verticalAlign=middle;fontFamily=Architects Daughter;fontSource=https%3A%2F%2Ffonts.googleapis.com%2Fcss%3Ffamily%3DArchitects%2BDaughter;fontSize=18;fontColor=default;labelBackgroundColor=default;startArrow=classic;startFill=1;endArrow=classic;flowAnimation=1;" edge="1" parent="1" source="aPE9NUyvlS6aANwrriKW-48" target="aPE9NUyvlS6aANwrriKW-54">
          <mxGeometry relative="1" as="geometry" />
        </mxCell>
        <mxCell id="aPE9NUyvlS6aANwrriKW-48" value="OCI" style="ellipse;shape=cloud;whiteSpace=wrap;html=1;sketch=1;hachureGap=4;jiggle=2;curveFitting=1;fontFamily=Architects Daughter;fontSource=https%3A%2F%2Ffonts.googleapis.com%2Fcss%3Ffamily%3DArchitects%2BDaughter;fontSize=18;fillColor=#dae8fc;gradientColor=#7ea6e0;strokeColor=#6c8ebf;fontColor=#000000;fontStyle=1" vertex="1" parent="1">
          <mxGeometry x="558.75" y="760" width="120" height="80" as="geometry" />
        </mxCell>
        <mxCell id="aPE9NUyvlS6aANwrriKW-49" value="Edge&lt;div&gt;Location&lt;/div&gt;" style="rounded=1;whiteSpace=wrap;html=1;sketch=1;hachureGap=4;jiggle=2;curveFitting=1;fontFamily=Architects Daughter;fontSource=https%3A%2F%2Ffonts.googleapis.com%2Fcss%3Ffamily%3DArchitects%2BDaughter;fontSize=18;labelBackgroundColor=none;fillColor=#f5f5f5;gradientColor=#b3b3b3;strokeColor=#666666;fontColor=#000000;fontStyle=1" vertex="1" parent="1">
          <mxGeometry x="741.25" y="620" width="110" height="50" as="geometry" />
        </mxCell>
        <mxCell id="aPE9NUyvlS6aANwrriKW-50" value="Edge&lt;div&gt;Location&lt;/div&gt;" style="rounded=1;whiteSpace=wrap;html=1;sketch=1;hachureGap=4;jiggle=2;curveFitting=1;fontFamily=Architects Daughter;fontSource=https%3A%2F%2Ffonts.googleapis.com%2Fcss%3Ffamily%3DArchitects%2BDaughter;fontSize=18;labelBackgroundColor=none;fillColor=#f5f5f5;gradientColor=#b3b3b3;strokeColor=#666666;fontColor=#000000;fontStyle=1" vertex="1" parent="1">
          <mxGeometry x="751.25" y="630" width="110" height="50" as="geometry" />
        </mxCell>
        <mxCell id="aPE9NUyvlS6aANwrriKW-51" value="Edge&lt;div&gt;Location&lt;/div&gt;" style="rounded=1;whiteSpace=wrap;html=1;sketch=1;hachureGap=4;jiggle=2;curveFitting=1;fontFamily=Architects Daughter;fontSource=https%3A%2F%2Ffonts.googleapis.com%2Fcss%3Ffamily%3DArchitects%2BDaughter;fontSize=18;labelBackgroundColor=none;fillColor=#f5f5f5;gradientColor=#b3b3b3;strokeColor=#666666;fontColor=#000000;fontStyle=1" vertex="1" parent="1">
          <mxGeometry x="761.25" y="640" width="110" height="50" as="geometry" />
        </mxCell>
        <mxCell id="aPE9NUyvlS6aANwrriKW-54" value="Datacenters" style="rounded=0;whiteSpace=wrap;html=1;sketch=1;hachureGap=4;jiggle=2;curveFitting=1;fontFamily=Architects Daughter;fontSource=https%3A%2F%2Ffonts.googleapis.com%2Fcss%3Ffamily%3DArchitects%2BDaughter;fontSize=18;labelBackgroundColor=none;fillColor=#f5f5f5;gradientColor=#b3b3b3;strokeColor=#666666;fontColor=#000000;fontStyle=1" vertex="1" parent="1">
          <mxGeometry x="746.25" y="710" width="120" height="60" as="geometry" />
        </mxCell>
        <mxCell id="aPE9NUyvlS6aANwrriKW-55" value="Datacenters" style="rounded=0;whiteSpace=wrap;html=1;sketch=1;hachureGap=4;jiggle=2;curveFitting=1;fontFamily=Architects Daughter;fontSource=https%3A%2F%2Ffonts.googleapis.com%2Fcss%3Ffamily%3DArchitects%2BDaughter;fontSize=18;labelBackgroundColor=none;fillColor=#f5f5f5;gradientColor=#b3b3b3;strokeColor=#666666;fontColor=#000000;fontStyle=1" vertex="1" parent="1">
          <mxGeometry x="756.25" y="720" width="120" height="60" as="geometry" />
        </mxCell>
        <mxCell id="aPE9NUyvlS6aANwrriKW-60" value="CDN" style="rounded=1;whiteSpace=wrap;html=1;sketch=1;hachureGap=4;jiggle=2;curveFitting=1;fontFamily=Architects Daughter;fontSource=https%3A%2F%2Ffonts.googleapis.com%2Fcss%3Ffamily%3DArchitects%2BDaughter;fontSize=18;fillColor=#ffcd28;gradientColor=#ffa500;strokeColor=#d79b00;fontColor=#000000;fontStyle=1" vertex="1" parent="1">
          <mxGeometry x="613.75" y="540" width="90" height="50" as="geometry" />
        </mxCell>
        <mxCell id="aPE9NUyvlS6aANwrriKW-67" style="edgeStyle=orthogonalEdgeStyle;curved=1;rounded=0;hachureGap=4;orthogonalLoop=1;jettySize=auto;html=1;exitX=0.75;exitY=1;exitDx=0;exitDy=0;entryX=0;entryY=0.5;entryDx=0;entryDy=0;strokeColor=#7F00FF;strokeWidth=2;align=center;verticalAlign=middle;fontFamily=Architects Daughter;fontSource=https%3A%2F%2Ffonts.googleapis.com%2Fcss%3Ffamily%3DArchitects%2BDaughter;fontSize=18;fontColor=default;labelBackgroundColor=default;endArrow=classic;flowAnimation=1;" edge="1" parent="1" source="aPE9NUyvlS6aANwrriKW-61" target="aPE9NUyvlS6aANwrriKW-54">
          <mxGeometry relative="1" as="geometry" />
        </mxCell>
        <mxCell id="aPE9NUyvlS6aANwrriKW-61" value="CDN" style="rounded=1;whiteSpace=wrap;html=1;sketch=1;hachureGap=4;jiggle=2;curveFitting=1;fontFamily=Architects Daughter;fontSource=https%3A%2F%2Ffonts.googleapis.com%2Fcss%3Ffamily%3DArchitects%2BDaughter;fontSize=18;fillColor=#ffcd28;gradientColor=#ffa500;strokeColor=#d79b00;fontColor=#000000;fontStyle=1" vertex="1" parent="1">
          <mxGeometry x="623.75" y="550" width="90" height="50" as="geometry" />
        </mxCell>
        <mxCell id="aPE9NUyvlS6aANwrriKW-62" style="edgeStyle=orthogonalEdgeStyle;curved=1;rounded=0;hachureGap=4;orthogonalLoop=1;jettySize=auto;html=1;entryX=0.5;entryY=0;entryDx=0;entryDy=0;strokeColor=#7F00FF;align=center;verticalAlign=middle;fontFamily=Architects Daughter;fontSource=https%3A%2F%2Ffonts.googleapis.com%2Fcss%3Ffamily%3DArchitects%2BDaughter;fontSize=18;fontColor=default;labelBackgroundColor=default;endArrow=classic;flowAnimation=1;strokeWidth=2;" edge="1" parent="1" source="aPE9NUyvlS6aANwrriKW-63" target="aPE9NUyvlS6aANwrriKW-60">
          <mxGeometry relative="1" as="geometry" />
        </mxCell>
        <mxCell id="aPE9NUyvlS6aANwrriKW-76" style="edgeStyle=orthogonalEdgeStyle;curved=1;rounded=0;hachureGap=4;orthogonalLoop=1;jettySize=auto;html=1;entryX=0.5;entryY=0;entryDx=0;entryDy=0;strokeColor=#7F00FF;align=center;verticalAlign=middle;fontFamily=Architects Daughter;fontSource=https%3A%2F%2Ffonts.googleapis.com%2Fcss%3Ffamily%3DArchitects%2BDaughter;fontSize=18;fontColor=default;labelBackgroundColor=default;endArrow=classic;flowAnimation=1;strokeWidth=2;" edge="1" parent="1" source="aPE9NUyvlS6aANwrriKW-63" target="aPE9NUyvlS6aANwrriKW-69">
          <mxGeometry relative="1" as="geometry" />
        </mxCell>
        <mxCell id="aPE9NUyvlS6aANwrriKW-63" value="10000 X User" style="shape=umlActor;verticalLabelPosition=bottom;verticalAlign=top;html=1;outlineConnect=0;sketch=1;hachureGap=4;jiggle=2;curveFitting=1;fontFamily=Architects Daughter;fontSource=https%3A%2F%2Ffonts.googleapis.com%2Fcss%3Ffamily%3DArchitects%2BDaughter;fontSize=18;" vertex="1" parent="1">
          <mxGeometry x="761.25" y="445" width="30" height="60" as="geometry" />
        </mxCell>
        <mxCell id="aPE9NUyvlS6aANwrriKW-65" style="edgeStyle=orthogonalEdgeStyle;curved=1;rounded=0;hachureGap=4;orthogonalLoop=1;jettySize=auto;html=1;exitX=0.25;exitY=1;exitDx=0;exitDy=0;entryX=0.533;entryY=0.1;entryDx=0;entryDy=0;entryPerimeter=0;strokeColor=#7F00FF;strokeWidth=2;align=center;verticalAlign=middle;fontFamily=Architects Daughter;fontSource=https%3A%2F%2Ffonts.googleapis.com%2Fcss%3Ffamily%3DArchitects%2BDaughter;fontSize=18;fontColor=default;labelBackgroundColor=default;endArrow=classic;flowAnimation=1;" edge="1" parent="1" source="aPE9NUyvlS6aANwrriKW-61" target="aPE9NUyvlS6aANwrriKW-45">
          <mxGeometry relative="1" as="geometry" />
        </mxCell>
        <mxCell id="aPE9NUyvlS6aANwrriKW-66" style="edgeStyle=orthogonalEdgeStyle;curved=1;rounded=0;hachureGap=4;orthogonalLoop=1;jettySize=auto;html=1;exitX=0.5;exitY=1;exitDx=0;exitDy=0;entryX=0.8;entryY=0.225;entryDx=0;entryDy=0;entryPerimeter=0;strokeColor=#7F00FF;strokeWidth=2;align=center;verticalAlign=middle;fontFamily=Architects Daughter;fontSource=https%3A%2F%2Ffonts.googleapis.com%2Fcss%3Ffamily%3DArchitects%2BDaughter;fontSize=18;fontColor=default;labelBackgroundColor=default;endArrow=classic;flowAnimation=1;" edge="1" parent="1" source="aPE9NUyvlS6aANwrriKW-61" target="aPE9NUyvlS6aANwrriKW-44">
          <mxGeometry relative="1" as="geometry" />
        </mxCell>
        <mxCell id="aPE9NUyvlS6aANwrriKW-69" value="CDN" style="rounded=1;whiteSpace=wrap;html=1;sketch=1;hachureGap=4;jiggle=2;curveFitting=1;fontFamily=Architects Daughter;fontSource=https%3A%2F%2Ffonts.googleapis.com%2Fcss%3Ffamily%3DArchitects%2BDaughter;fontSize=18;fillColor=#ffcd28;gradientColor=#ffa500;strokeColor=#d79b00;fontColor=#000000;fontStyle=1" vertex="1" parent="1">
          <mxGeometry x="402.5" y="540" width="90" height="50" as="geometry" />
        </mxCell>
        <mxCell id="aPE9NUyvlS6aANwrriKW-70" value="China&lt;div&gt;CDN&lt;/div&gt;" style="rounded=1;whiteSpace=wrap;html=1;sketch=1;hachureGap=4;jiggle=2;curveFitting=1;fontFamily=Architects Daughter;fontSource=https%3A%2F%2Ffonts.googleapis.com%2Fcss%3Ffamily%3DArchitects%2BDaughter;fontSize=18;fillColor=#ffcd28;gradientColor=#ffa500;strokeColor=#d79b00;fontColor=#000000;fontStyle=1" vertex="1" parent="1">
          <mxGeometry x="412.5" y="550" width="90" height="50" as="geometry" />
        </mxCell>
        <mxCell id="aPE9NUyvlS6aANwrriKW-71" value="Aliyun" style="ellipse;shape=cloud;whiteSpace=wrap;html=1;sketch=1;hachureGap=4;jiggle=2;curveFitting=1;fontFamily=Architects Daughter;fontSource=https%3A%2F%2Ffonts.googleapis.com%2Fcss%3Ffamily%3DArchitects%2BDaughter;fontSize=18;fillColor=#dae8fc;gradientColor=#7ea6e0;strokeColor=#6c8ebf;fontColor=#000000;fontStyle=1" vertex="1" parent="1">
          <mxGeometry x="340" y="630" width="120" height="80" as="geometry" />
        </mxCell>
        <mxCell id="aPE9NUyvlS6aANwrriKW-72" value="21V" style="ellipse;shape=cloud;whiteSpace=wrap;html=1;sketch=1;hachureGap=4;jiggle=2;curveFitting=1;fontFamily=Architects Daughter;fontSource=https%3A%2F%2Ffonts.googleapis.com%2Fcss%3Ffamily%3DArchitects%2BDaughter;fontSize=18;fillColor=#dae8fc;gradientColor=#7ea6e0;strokeColor=#6c8ebf;fontColor=#000000;fontStyle=1" vertex="1" parent="1">
          <mxGeometry x="345" y="680" width="120" height="80" as="geometry" />
        </mxCell>
        <mxCell id="aPE9NUyvlS6aANwrriKW-79" value="Cross Border Line" style="edgeStyle=orthogonalEdgeStyle;curved=1;rounded=0;hachureGap=4;orthogonalLoop=1;jettySize=auto;html=1;entryX=0.25;entryY=1;entryDx=0;entryDy=0;strokeColor=#FF00FF;strokeWidth=2;align=center;verticalAlign=middle;fontFamily=Architects Daughter;fontSource=https%3A%2F%2Ffonts.googleapis.com%2Fcss%3Ffamily%3DArchitects%2BDaughter;fontSize=18;fontColor=default;labelBackgroundColor=default;endArrow=classic;flowAnimation=1;" edge="1" parent="1" source="aPE9NUyvlS6aANwrriKW-73" target="aPE9NUyvlS6aANwrriKW-55">
          <mxGeometry x="-0.0716" relative="1" as="geometry">
            <Array as="points">
              <mxPoint x="380" y="880" />
              <mxPoint x="530" y="880" />
              <mxPoint x="530" y="910" />
              <mxPoint x="786" y="910" />
            </Array>
            <mxPoint as="offset" />
          </mxGeometry>
        </mxCell>
        <mxCell id="aPE9NUyvlS6aANwrriKW-73" value="AWS&lt;div&gt;China&lt;/div&gt;" style="ellipse;shape=cloud;whiteSpace=wrap;html=1;sketch=1;hachureGap=4;jiggle=2;curveFitting=1;fontFamily=Architects Daughter;fontSource=https%3A%2F%2Ffonts.googleapis.com%2Fcss%3Ffamily%3DArchitects%2BDaughter;fontSize=18;fillColor=#dae8fc;gradientColor=#7ea6e0;strokeColor=#6c8ebf;fontColor=#000000;fontStyle=1" vertex="1" parent="1">
          <mxGeometry x="320" y="720" width="120" height="80" as="geometry" />
        </mxCell>
        <mxCell id="aPE9NUyvlS6aANwrriKW-81" style="edgeStyle=orthogonalEdgeStyle;curved=1;rounded=0;hachureGap=4;orthogonalLoop=1;jettySize=auto;html=1;entryX=0.5;entryY=1;entryDx=0;entryDy=0;strokeColor=default;align=center;verticalAlign=middle;fontFamily=Architects Daughter;fontSource=https%3A%2F%2Ffonts.googleapis.com%2Fcss%3Ffamily%3DArchitects%2BDaughter;fontSize=18;fontColor=default;labelBackgroundColor=default;endArrow=classic;flowAnimation=0;strokeWidth=1;sketch=1;curveFitting=1;jiggle=2;" edge="1" parent="1" source="aPE9NUyvlS6aANwrriKW-80" target="aPE9NUyvlS6aANwrriKW-55">
          <mxGeometry relative="1" as="geometry" />
        </mxCell>
        <mxCell id="aPE9NUyvlS6aANwrriKW-82" style="edgeStyle=orthogonalEdgeStyle;curved=1;rounded=0;hachureGap=4;orthogonalLoop=1;jettySize=auto;html=1;entryX=1;entryY=0.5;entryDx=0;entryDy=0;strokeColor=default;align=center;verticalAlign=middle;fontFamily=Architects Daughter;fontSource=https%3A%2F%2Ffonts.googleapis.com%2Fcss%3Ffamily%3DArchitects%2BDaughter;fontSize=18;fontColor=default;labelBackgroundColor=default;endArrow=classic;flowAnimation=0;strokeWidth=1;sketch=1;curveFitting=1;jiggle=2;" edge="1" parent="1" source="aPE9NUyvlS6aANwrriKW-80" target="aPE9NUyvlS6aANwrriKW-51">
          <mxGeometry relative="1" as="geometry">
            <Array as="points">
              <mxPoint x="816" y="820" />
              <mxPoint x="900" y="820" />
              <mxPoint x="900" y="665" />
            </Array>
          </mxGeometry>
        </mxCell>
        <mxCell id="aPE9NUyvlS6aANwrriKW-80" value="Admin" style="shape=umlActor;verticalLabelPosition=bottom;verticalAlign=top;html=1;outlineConnect=0;sketch=1;hachureGap=4;jiggle=2;curveFitting=1;fontFamily=Architects Daughter;fontSource=https%3A%2F%2Ffonts.googleapis.com%2Fcss%3Ffamily%3DArchitects%2BDaughter;fontSize=18;" vertex="1" parent="1">
          <mxGeometry x="801.25" y="860" width="30" height="60" as="geometry" />
        </mxCell>
        <mxCell id="aPE9NUyvlS6aANwrriKW-86" style="edgeStyle=orthogonalEdgeStyle;curved=1;rounded=0;hachureGap=4;orthogonalLoop=1;jettySize=auto;html=1;exitX=0.96;exitY=0.7;exitDx=0;exitDy=0;exitPerimeter=0;entryX=-0.057;entryY=0.52;entryDx=0;entryDy=0;entryPerimeter=0;strokeColor=#FF00FF;strokeWidth=2;align=center;verticalAlign=middle;fontFamily=Architects Daughter;fontSource=https%3A%2F%2Ffonts.googleapis.com%2Fcss%3Ffamily%3DArchitects%2BDaughter;fontSize=18;fontColor=default;labelBackgroundColor=default;startArrow=classic;startFill=1;endArrow=classic;flowAnimation=1;" edge="1" parent="1" source="aPE9NUyvlS6aANwrriKW-44" target="aPE9NUyvlS6aANwrriKW-50">
          <mxGeometry relative="1" as="geometry" />
        </mxCell>
        <mxCell id="aPE9NUyvlS6aANwrriKW-87" style="edgeStyle=orthogonalEdgeStyle;curved=1;rounded=0;hachureGap=4;orthogonalLoop=1;jettySize=auto;html=1;entryX=0.96;entryY=0.7;entryDx=0;entryDy=0;entryPerimeter=0;strokeColor=default;strokeWidth=1;align=center;verticalAlign=middle;fontFamily=Architects Daughter;fontSource=https%3A%2F%2Ffonts.googleapis.com%2Fcss%3Ffamily%3DArchitects%2BDaughter;fontSize=18;fontColor=default;labelBackgroundColor=default;endArrow=classic;flowAnimation=0;sketch=1;curveFitting=1;jiggle=2;" edge="1" parent="1" source="aPE9NUyvlS6aANwrriKW-80" target="aPE9NUyvlS6aANwrriKW-48">
          <mxGeometry relative="1" as="geometry">
            <Array as="points">
              <mxPoint x="720" y="890" />
              <mxPoint x="720" y="816" />
            </Array>
          </mxGeometry>
        </mxCell>
        <mxCell id="aPE9NUyvlS6aANwrriKW-88" style="edgeStyle=orthogonalEdgeStyle;curved=1;rounded=0;hachureGap=4;orthogonalLoop=1;jettySize=auto;html=1;entryX=0.8;entryY=0.8;entryDx=0;entryDy=0;entryPerimeter=0;strokeColor=default;strokeWidth=1;align=center;verticalAlign=middle;fontFamily=Architects Daughter;fontSource=https%3A%2F%2Ffonts.googleapis.com%2Fcss%3Ffamily%3DArchitects%2BDaughter;fontSize=18;fontColor=default;labelBackgroundColor=default;endArrow=classic;flowAnimation=0;sketch=1;curveFitting=1;jiggle=2;" edge="1" parent="1" source="aPE9NUyvlS6aANwrriKW-80" target="aPE9NUyvlS6aANwrriKW-73">
          <mxGeometry relative="1" as="geometry" />
        </mxCell>
        <mxCell id="aPE9NUyvlS6aANwrriKW-89" value="Normal" style="text;html=1;align=center;verticalAlign=middle;whiteSpace=wrap;rounded=0;fontFamily=Architects Daughter;fontSource=https%3A%2F%2Ffonts.googleapis.com%2Fcss%3Ffamily%3DArchitects%2BDaughter;fontSize=30;fontColor=default;labelBackgroundColor=default;fontStyle=4" vertex="1" parent="1">
          <mxGeometry x="105" y="20" width="60" height="30" as="geometry" />
        </mxCell>
        <mxCell id="aPE9NUyvlS6aANwrriKW-90" value="Beginner" style="text;html=1;align=center;verticalAlign=middle;whiteSpace=wrap;rounded=0;fontFamily=Architects Daughter;fontSource=https%3A%2F%2Ffonts.googleapis.com%2Fcss%3Ffamily%3DArchitects%2BDaughter;fontSize=30;fontColor=default;labelBackgroundColor=default;fontStyle=4" vertex="1" parent="1">
          <mxGeometry x="618.75" y="20" width="60" height="30" as="geometry" />
        </mxCell>
        <mxCell id="aPE9NUyvlS6aANwrriKW-92" value="Pro" style="text;html=1;align=center;verticalAlign=middle;whiteSpace=wrap;rounded=0;fontFamily=Architects Daughter;fontSource=https%3A%2F%2Ffonts.googleapis.com%2Fcss%3Ffamily%3DArchitects%2BDaughter;fontSize=30;fontColor=default;labelBackgroundColor=default;fontStyle=4" vertex="1" parent="1">
          <mxGeometry x="85" y="390" width="60" height="30" as="geometry" />
        </mxCell>
        <mxCell id="aPE9NUyvlS6aANwrriKW-93" value="Legend" style="text;html=1;align=center;verticalAlign=middle;whiteSpace=wrap;rounded=0;fontFamily=Architects Daughter;fontSource=https%3A%2F%2Ffonts.googleapis.com%2Fcss%3Ffamily%3DArchitects%2BDaughter;fontSize=30;fontColor=default;labelBackgroundColor=default;fontStyle=4" vertex="1" parent="1">
          <mxGeometry x="608.75" y="390" width="60" height="30" as="geometry" />
        </mxCell>
        <mxCell id="aPE9NUyvlS6aANwrriKW-95" style="edgeStyle=orthogonalEdgeStyle;curved=1;rounded=0;hachureGap=4;orthogonalLoop=1;jettySize=auto;html=1;exitX=0.55;exitY=0.95;exitDx=0;exitDy=0;exitPerimeter=0;entryX=0.88;entryY=0.25;entryDx=0;entryDy=0;entryPerimeter=0;strokeColor=#FF00FF;strokeWidth=2;align=center;verticalAlign=middle;fontFamily=Architects Daughter;fontSource=https%3A%2F%2Ffonts.googleapis.com%2Fcss%3Ffamily%3DArchitects%2BDaughter;fontSize=18;fontColor=default;labelBackgroundColor=default;startArrow=classic;startFill=1;endArrow=classic;flowAnimation=1;fontStyle=1" edge="1" parent="1" source="aPE9NUyvlS6aANwrriKW-16" target="aPE9NUyvlS6aANwrriKW-15">
          <mxGeometry relative="1" as="geometry" />
        </mxCell>
        <mxCell id="aPE9NUyvlS6aANwrriKW-98" value="" style="html=1;shadow=0;dashed=0;align=center;verticalAlign=middle;shape=mxgraph.arrows2.arrow;dy=0.6;dx=40;notch=0;sketch=1;hachureGap=4;jiggle=2;curveFitting=1;strokeColor=#82b366;fontFamily=Architects Daughter;fontSource=https%3A%2F%2Ffonts.googleapis.com%2Fcss%3Ffamily%3DArchitects%2BDaughter;fontSize=18;labelBackgroundColor=default;fillColor=#d5e8d4;gradientColor=#97d077;" vertex="1" parent="1">
          <mxGeometry x="365" y="140" width="125" height="70" as="geometry" />
        </mxCell>
        <mxCell id="aPE9NUyvlS6aANwrriKW-99" value="" style="html=1;shadow=0;dashed=0;align=center;verticalAlign=middle;shape=mxgraph.arrows2.bendArrow;dy=15;dx=38;notch=0;arrowHead=55;rounded=0;sketch=1;hachureGap=4;jiggle=2;curveFitting=1;strokeColor=#82b366;fontFamily=Architects Daughter;fontSource=https%3A%2F%2Ffonts.googleapis.com%2Fcss%3Ffamily%3DArchitects%2BDaughter;fontSize=18;labelBackgroundColor=default;fillColor=#d5e8d4;rotation=-90;flipV=0;flipH=1;gradientColor=#97d077;" vertex="1" parent="1">
          <mxGeometry x="296.88" y="171.88" width="121.25" height="360" as="geometry" />
        </mxCell>
        <mxCell id="aPE9NUyvlS6aANwrriKW-101" value="" style="edgeStyle=orthogonalEdgeStyle;curved=1;rounded=0;hachureGap=4;orthogonalLoop=1;jettySize=auto;html=1;exitX=0.5;exitY=1;exitDx=0;exitDy=0;entryX=0.625;entryY=0.2;entryDx=0;entryDy=0;entryPerimeter=0;strokeColor=#7F00FF;strokeWidth=2;align=center;verticalAlign=middle;fontFamily=Architects Daughter;fontSource=https%3A%2F%2Ffonts.googleapis.com%2Fcss%3Ffamily%3DArchitects%2BDaughter;fontSize=18;fontColor=default;labelBackgroundColor=default;endArrow=classic;flowAnimation=1;" edge="1" parent="1" source="aPE9NUyvlS6aANwrriKW-70" target="aPE9NUyvlS6aANwrriKW-71">
          <mxGeometry relative="1" as="geometry">
            <mxPoint x="458" y="600" as="sourcePoint" />
            <mxPoint x="430" y="650" as="targetPoint" />
          </mxGeometry>
        </mxCell>
        <mxCell id="aPE9NUyvlS6aANwrriKW-100" value="" style="html=1;shadow=0;dashed=0;align=center;verticalAlign=middle;shape=mxgraph.arrows2.arrow;dy=0.6;dx=40;notch=0;sketch=1;hachureGap=4;jiggle=2;curveFitting=1;strokeColor=#82b366;fontFamily=Architects Daughter;fontSource=https%3A%2F%2Ffonts.googleapis.com%2Fcss%3Ffamily%3DArchitects%2BDaughter;fontSize=18;labelBackgroundColor=default;fillColor=#d5e8d4;gradientColor=#97d077;" vertex="1" parent="1">
          <mxGeometry x="243.75" y="575" width="126.25" height="70" as="geometry" />
        </mxCell>
      </root>
    </mxGraphModel>
  </diagram>
</mxfile>
